PathFileType	4	(x/y/z)	S01_P20_T17
DataRate	CameraRate	NumFrames	NumMarkers	Units	OrigDataRate	OrigDataStartFrame	OrigNumFrames
240	240	10	51	mm	240	210	418
Frame#	Time	Sternum			R.Acromium			L.Acromium			Top.Head			R.ASIS			L.ASIS			R.PSIS			L.PSIS			R.Great.Tro			L.Great.Tro			R.Iliac.Crest			L.Iliac.Crest			V.Sacral			R.Thigh.Upper.Post			R.Thigh.Lower.Ant			R.Thigh.Lower.Post			R.Thigh.Upper.Ant			R.Knee.Lat			R.Knee.Med			R.Shank.Upper.Post			R.Shank.Lower.Ant			R.Shank.Lower.Post			R.Shank.Upper.Ant			R.Ankle.Lat			R.Ankle.Med			R.Heel.Upper			R.Heel.Med			R.Heel.Lat			R.Toe.Lat			R.Toe.Med			R.Toe.Tip			L.Thigh.Upper.Post			L.Thigh.Lower.Ant			L.Thigh.Lower.Post			L.Thigh.Upper.Ant			L.Knee.Lat			L.Knee.Med			L.Shank.Upper.Post			L.Shank.Lower.Ant			L.Shank.Lower.Post			L.Shank.Upper.Ant			L.Ankle.Lat			L.Ankle.Med			L.Heel.Upper			L.Heel.Med			L.Heel.Lat			L.Toe.Lat			L.Toe.Med			L.Toe.Tip			Cervical.Spine			Back			
		X1	Y1	Z1	X2	Y2	Z2	X3	Y3	Z3	X4	Y4	Z4	X5	Y5	Z5	X6	Y6	Z6	X7	Y7	Z7	X8	Y8	Z8	X9	Y9	Z9	X10	Y10	Z10	X11	Y11	Z11	X12	Y12	Z12	X13	Y13	Z13	X14	Y14	Z14	X15	Y15	Z15	X16	Y16	Z16	X17	Y17	Z17	X18	Y18	Z18	X19	Y19	Z19	X20	Y20	Z20	X21	Y21	Z21	X22	Y22	Z22	X23	Y23	Z23	X24	Y24	Z24	X25	Y25	Z25	X26	Y26	Z26	X27	Y27	Z27	X28	Y28	Z28	X29	Y29	Z29	X30	Y30	Z30	X31	Y31	Z31	X32	Y32	Z32	X33	Y33	Z33	X34	Y34	Z34	X35	Y35	Z35	X36	Y36	Z36	X37	Y37	Z37	X38	Y38	Z38	X39	Y39	Z39	X40	Y40	Z40	X41	Y41	Z41	X42	Y42	Z42	X43	Y43	Z43	X44	Y44	Z44	X45	Y45	Z45	X46	Y46	Z46	X47	Y47	Z47	X48	Y48	Z48	X49	Y49	Z49	X50	Y50	Z50	X51	Y51	Z51	

210	0.87083	-102.16	1279.6	298.86	-185.15	1528.5	490.99	-240.19	1555.7	167.98	-222.2	1857.9	338.84	-149.61	1023.2	452.3	-154.78	1041	187.39	-386.29	1080.7	361.34	-389.47	1078.9	258.88	-235.52	973.59	529.3	-253.59	994.69	103.07	-230.88	1122.7	521.89	-267.53	1125.7	117.73	-401.34	1042.8	307.66	-294.18	676.21	499.91	-237.74	595.67	470.13	-306.26	590.26	477.91	-221.2	682.67	492.46	-300.25	520.71	468.64	-293.86	524.11	324.47	-396.43	379.24	487.29	-358.24	284.43	444.5	-418.18	312.35	474.32	-339.82	353.61	463.17	-469.03	114.23	433.45	-434.93	115.93	341.83	-540.44	88.931	372.87	-527.63	57.624	345.12	-534.9	58.851	409.42	-349.74	34.255	476.1	-312	41.42	351.8	-249.92	49.305	410.43	-183.87	706.71	119.96	-80.744	668.23	110.06	-142.49	626.64	136.85	-130.38	748.13	93.757	-65.833	566.1	121.36	-29.389	574.8	262.57	-95.389	424.54	106.84	-18.493	346.1	124.92	-80.032	344.47	109.32	-31.303	421.58	117.44	-55.674	131.52	145.71	-20.017	150.74	238.89	-114.77	87.475	200.96	-93.901	65.891	233.62	-102.98	61.667	171.85	95.151	84.127	112.2	132.39	100.46	230.4	182.57	127.24	171.39	-300.41	1601	348.44	-398.29	1285.4	356.87
211	0.875	-96.624	1278.1	298.55	-179.68	1527.2	490.46	-234.47	1554.5	167.53	-216.59	1856.9	338.41	-144.54	1022	452.1	-149.1	1039.7	187.07	-381.01	1079.7	360.7	-383.99	1077.9	258.23	-230.8	972.73	529.02	-247.85	993.46	102.65	-225.83	1121.5	521.52	-261.7	1124.3	117.21	-396	1041.8	306.99	-290.81	675.78	499.65	-234.74	594.93	470.07	-303.27	589.88	477.68	-217.85	681.89	492.34	-297.64	520.23	468.53	-291	523.52	324.28	-394.62	379.3	487.13	-356.91	284.2	444.43	-416.75	312.52	474.15	-338.1	353.31	463.09	-468.73	114.58	433.32	-434.59	116.16	341.74	-540.22	89.471	372.73	-527.5	58.129	345	-534.76	59.4	409.29	-349.74	34.277	476.13	-311.86	41.429	351.8	-249.84	49.168	410.47	-178.73	705.35	120.04	-75.617	666.82	110.28	-137.38	625.32	137.17	-125.29	746.69	93.756	-60.165	565.03	121.88	-24.743	573.64	263.4	-87.437	422.98	106.93	-9.2869	345.73	125.07	-70.822	343.2	109.19	-23.307	421.03	117.76	-42.678	130.13	145.23	-7.9089	149.95	238.68	-101.28	84.818	200.02	-80.186	63.536	232.77	-88.817	59.243	170.94	109.33	85.645	112.45	145.56	102.55	230.92	195.62	130.35	172.22	-294.9	1600	347.93	-392.94	1284.4	356.2
212	0.87917	-91.08	1276.7	298.22	-174.22	1526	489.9	-228.75	1553.3	167.05	-210.98	1855.8	337.95	-139.43	1020.7	451.89	-143.4	1038.3	186.75	-375.7	1078.7	360.04	-378.48	1076.8	257.56	-226.04	971.87	528.73	-242.06	992.18	102.23	-220.79	1120.3	521.14	-255.84	1123	116.67	-390.62	1040.7	306.3	-287.34	675.32	499.4	-231.62	594.17	470.01	-300.16	589.47	477.47	-214.41	681.09	492.23	-294.91	519.73	468.42	-288.01	522.9	324.1	-392.7	379.36	486.98	-355.51	283.96	444.38	-415.23	312.7	473.99	-336.29	352.98	463.02	-468.41	114.96	433.22	-434.24	116.41	341.66	-539.98	90.061	372.62	-527.36	58.685	344.9	-534.61	59.991	409.19	-349.74	34.306	476.17	-311.72	41.434	351.81	-249.77	49.031	410.51	-173.48	703.98	120.06	-70.369	665.42	110.49	-132.16	624	137.43	-120.08	745.25	93.726	-54.437	563.94	122.39	-20.061	572.46	264.2	-79.619	421.45	107.05	-0.33005	345.32	125.25	-61.845	341.97	109.11	-15.464	420.45	118.09	-30.194	128.84	144.84	3.713	149.2	238.54	-88.331	82.346	199.19	-67.039	61.355	232.02	-75.232	57.003	170.15	122.89	87.08	112.78	158.13	104.51	231.5	208.07	133.27	173.1	-289.39	1598.9	347.38	-387.58	1283.3	355.52
213	0.88333	-85.529	1275.2	297.88	-168.78	1524.7	489.31	-223.02	1552.1	166.54	-205.36	1854.6	337.47	-134.29	1019.4	451.68	-137.66	1036.9	186.41	-370.36	1077.6	359.36	-372.94	1075.7	256.87	-221.24	970.99	528.44	-236.24	990.85	101.81	-215.74	1119.1	520.74	-249.94	1121.5	116.11	-385.21	1039.6	305.6	-283.76	674.84	499.16	-228.38	593.4	469.96	-296.93	589.04	477.28	-210.85	680.29	492.13	-292.05	519.19	468.33	-284.9	522.24	323.94	-390.67	379.42	486.85	-354.02	283.71	444.34	-413.62	312.88	473.85	-334.39	352.65	462.97	-468.07	115.38	433.14	-433.87	116.69	341.59	-539.73	90.705	372.54	-527.22	59.298	344.83	-534.46	60.63	409.1	-349.73	34.339	476.21	-311.59	41.438	351.82	-249.69	48.893	410.54	-168.12	702.61	120.04	-64.994	664.04	110.69	-126.82	622.68	137.65	-114.74	743.81	93.673	-48.647	562.83	122.87	-15.333	571.26	264.96	-71.943	419.96	107.18	8.3707	344.86	125.47	-53.112	340.75	109.08	-7.7779	419.81	118.43	-18.248	127.63	144.55	14.833	148.48	238.48	-75.943	80.05	198.48	-54.492	59.335	231.39	-62.263	54.933	169.46	135.78	88.396	113.18	170.09	106.31	232.14	219.92	135.94	174.03	-283.9	1597.8	346.8	-382.22	1282.1	354.8
214	0.8875	-79.972	1273.8	297.53	-163.36	1523.4	488.68	-217.3	1550.8	166	-199.74	1853.5	336.97	-129.11	1018.2	451.47	-131.89	1035.4	186.08	-365	1076.6	358.67	-367.36	1074.5	256.16	-216.4	970.11	528.13	-230.36	989.47	101.39	-210.71	1117.9	520.33	-244.01	1120.1	115.54	-379.76	1038.5	304.88	-280.07	674.34	498.93	-225.01	592.61	469.93	-293.57	588.58	477.1	-207.18	679.47	492.03	-289.05	518.64	468.26	-281.66	521.55	323.79	-388.53	379.48	486.73	-352.45	283.46	444.31	-411.93	313.08	473.74	-332.37	352.29	462.93	-467.7	115.83	433.08	-433.5	117.01	341.55	-539.48	91.41	372.48	-527.08	59.974	344.78	-534.29	61.321	409.04	-349.72	34.372	476.27	-311.46	41.44	351.84	-249.61	48.755	410.58	-162.63	701.24	119.98	-59.485	662.68	110.9	-121.35	621.37	137.83	-109.27	742.4	93.605	-42.795	561.71	123.34	-10.546	570.05	265.68	-64.415	418.49	107.33	16.81	344.34	125.72	-44.631	339.55	109.09	-0.25264	419.11	118.78	-6.862	126.47	144.35	25.436	147.77	238.51	-64.147	77.92	197.89	-42.569	57.462	230.88	-49.941	53.02	168.9	148	89.561	113.65	181.43	107.92	232.85	231.16	138.33	174.99	-278.41	1596.7	346.18	-376.85	1281	354.06
215	0.89167	-74.408	1272.3	297.17	-157.95	1522	488.03	-211.58	1549.5	165.42	-194.11	1852.3	336.43	-123.89	1017	451.26	-126.09	1034	185.74	-359.61	1075.4	357.95	-361.76	1073.2	255.42	-211.5	969.23	527.81	-224.44	988.06	100.96	-205.68	1116.7	519.91	-238.06	1118.6	114.95	-374.28	1037.3	304.15	-276.27	673.81	498.71	-221.51	591.81	469.9	-290.09	588.09	476.94	-203.39	678.65	491.94	-285.92	518.06	468.2	-278.28	520.83	323.67	-386.29	379.55	486.64	-350.8	283.21	444.3	-410.13	313.29	473.64	-330.25	351.93	462.92	-467.3	116.32	433.04	-433.1	117.38	341.52	-539.21	92.182	372.46	-526.93	60.719	344.75	-534.12	62.071	409	-349.7	34.404	476.33	-311.33	41.442	351.87	-249.53	48.615	410.62	-157.02	699.88	119.88	-53.842	661.36	111.12	-115.75	620.07	137.96	-103.67	741.01	93.53	-36.883	560.57	123.78	-5.6942	568.84	266.35	-57.039	417.04	107.5	24.982	343.74	126.01	-36.407	338.35	109.16	7.11	418.35	119.15	3.9473	125.35	144.24	35.512	147.05	238.61	-52.966	75.947	197.42	-31.296	55.722	230.49	-38.291	51.25	168.47	159.54	90.543	114.2	192.14	109.3	233.6	241.79	140.4	175.99	-272.93	1595.5	345.52	-371.47	1279.8	353.29
216	0.89583	-68.836	1270.9	296.79	-152.56	1520.7	487.35	-205.86	1548.2	164.81	-188.47	1851.1	335.87	-118.63	1015.7	451.04	-120.26	1032.5	185.39	-354.2	1074.3	357.22	-356.12	1071.9	254.67	-206.55	968.34	527.48	-218.47	986.61	100.54	-200.65	1115.5	519.48	-232.09	1117.1	114.35	-368.76	1036.1	303.4	-272.36	673.26	498.5	-217.87	591	469.88	-286.47	587.57	476.8	-199.48	677.82	491.85	-282.64	517.45	468.16	-274.76	520.07	323.57	-383.92	379.62	486.57	-349.07	282.95	444.31	-408.24	313.52	473.57	-328.02	351.55	462.92	-466.87	116.86	433.03	-432.69	117.78	341.52	-538.92	93.026	372.47	-526.78	61.539	344.74	-533.94	62.884	408.98	-349.68	34.431	476.39	-311.21	41.442	351.9	-249.45	48.473	410.66	-151.29	698.53	119.76	-48.066	660.06	111.37	-110.04	618.79	138.06	-97.927	739.64	93.459	-30.914	559.42	124.21	-0.76866	567.64	266.96	-49.817	415.61	107.7	32.886	343.07	126.34	-28.446	337.16	109.27	14.309	417.53	119.53	14.167	124.27	144.23	45.053	146.3	238.79	-42.419	74.123	197.08	-20.693	54.105	230.22	-27.336	49.613	168.16	170.37	91.315	114.81	202.21	110.43	234.4	251.8	142.12	177.01	-267.47	1594.4	344.82	-366.08	1278.5	352.49
217	0.9	-63.256	1269.4	296.39	-147.19	1519.4	486.64	-200.15	1546.8	164.16	-182.84	1849.9	335.28	-113.32	1014.5	450.82	-114.39	1031.1	185.05	-348.75	1073.1	356.46	-350.45	1070.6	253.9	-201.55	967.46	527.14	-212.45	985.14	100.11	-195.63	1114.3	519.04	-226.09	1115.6	113.74	-363.2	1034.8	302.64	-268.32	672.68	498.3	-214.08	590.19	469.86	-282.7	587.02	476.68	-195.44	676.98	491.77	-279.21	516.81	468.14	-271.1	519.29	323.48	-381.43	379.7	486.52	-347.24	282.71	444.33	-406.25	313.77	473.53	-325.67	351.17	462.94	-466.41	117.44	433.04	-432.25	118.24	341.54	-538.6	93.951	372.5	-526.61	62.442	344.75	-533.74	63.768	408.99	-349.66	34.451	476.46	-311.09	41.44	351.93	-249.36	48.329	410.71	-145.44	697.18	119.61	-42.162	658.8	111.63	-104.2	617.52	138.12	-92.055	738.31	93.402	-24.892	558.25	124.63	4.2355	566.45	267.52	-42.753	414.19	107.92	40.521	342.31	126.71	-20.751	335.95	109.43	21.344	416.63	119.93	23.788	123.2	144.31	54.053	145.51	239.06	-32.523	72.442	196.85	-10.774	52.599	230.07	-17.093	48.099	167.97	180.5	91.852	115.48	211.64	111.27	235.24	261.19	143.46	178.06	-262.01	1593.2	344.08	-360.68	1277.3	351.66
218	0.90417	-57.667	1268	295.98	-141.84	1518.1	485.9	-194.44	1545.5	163.47	-177.2	1848.7	334.65	-107.98	1013.4	450.59	-108.48	1029.6	184.69	-343.27	1071.9	355.68	-344.74	1069.3	253.11	-196.49	966.58	526.78	-206.38	983.64	99.679	-190.61	1113.1	518.6	-220.08	1114	113.11	-357.59	1033.5	301.87	-264.15	672.08	498.12	-210.16	589.36	469.85	-278.79	586.45	476.58	-191.28	676.14	491.69	-275.63	516.15	468.13	-267.29	518.48	323.43	-378.82	379.79	486.49	-345.33	282.47	444.37	-404.15	314.03	473.51	-323.21	350.77	462.98	-465.91	118.08	433.08	-431.77	118.75	341.59	-538.27	94.962	372.57	-526.43	63.436	344.79	-533.52	64.729	409.02	-349.64	34.463	476.52	-310.98	41.438	351.96	-249.26	48.183	410.76	-139.49	695.85	119.44	-36.138	657.58	111.93	-98.263	616.27	138.15	-86.058	737.01	93.369	-18.822	557.07	125.03	9.3219	565.27	268.02	-35.846	412.78	108.16	47.887	341.45	127.11	-13.321	334.73	109.63	28.216	415.65	120.35	32.808	122.13	144.47	62.509	144.66	239.39	-23.288	70.899	196.75	-1.5529	51.196	230.02	-7.5743	46.7	167.88	189.92	92.135	116.21	220.44	111.8	236.13	269.98	144.4	179.14	-256.57	1592	343.3	-355.28	1276	350.8
219	0.90833	-52.068	1266.6	295.56	-136.51	1516.8	485.13	-188.73	1544.1	162.74	-171.57	1847.5	334	-102.59	1012.2	450.37	-102.54	1028.1	184.34	-337.76	1070.7	354.88	-339	1067.9	252.3	-191.38	965.71	526.42	-200.26	982.12	99.249	-185.59	1111.9	518.14	-214.06	1112.5	112.46	-351.95	1032.2	301.07	-259.86	671.46	497.95	-206.08	588.53	469.85	-274.73	585.85	476.5	-186.98	675.3	491.61	-271.89	515.46	468.15	-263.32	517.63	323.4	-376.08	379.89	486.48	-343.32	282.24	444.43	-401.94	314.33	473.51	-320.63	350.38	463.04	-465.37	118.78	433.15	-431.27	119.32	341.66	-537.9	96.067	372.67	-526.23	64.527	344.84	-533.29	65.774	409.08	-349.62	34.467	476.58	-310.87	41.434	352	-249.16	48.033	410.8	-133.43	694.54	119.25	-30.004	656.4	112.27	-92.224	615.03	138.16	-79.943	735.75	93.368	-12.712	555.87	125.42	14.492	564.1	268.46	-29.095	411.39	108.43	54.987	340.5	127.56	-6.1567	333.49	109.89	34.927	414.61	120.79	41.227	121.07	144.71	70.423	143.75	239.79	-14.718	69.49	196.75	6.9637	49.89	230.08	1.2149	45.412	167.91	198.65	92.146	116.99	228.61	112.01	237.04	278.17	144.91	180.23	-251.13	1590.8	342.48	-349.86	1274.7	349.91
